<svg width="170" height="41" viewBox="0 0 170 41" fill="none" xmlns="http://www.w3.org/2000/svg">
<circle cx="20" cy="20.5" r="20" fill="#DFDFDF"/>
<path d="M22.3569 15.3227H24V12.6197C23.7165 12.5829 22.7416 12.5 21.6062 12.5C19.2371 12.5 17.6143 13.9075 17.6143 16.4943V18.875H15V21.8967H17.6143V29.5H20.8195V21.8975H23.3281L23.7263 18.8757H20.8188V16.7939C20.8195 15.9205 21.0685 15.3227 22.3569 15.3227Z" fill="#211105"/>
<circle cx="85" cy="20.5" r="20" fill="#DFDFDF"/>
<path d="M87.9133 27.9442C87.9267 27.9402 87.9394 27.9349 87.9527 27.9302C96.104 24.6954 93.8491 12.5 85.0078 12.5C80.5708 12.5 77 16.1128 77 20.4987C77 26.0492 82.6282 30.0099 87.9133 27.9442ZM80.5241 25.8705C81.0927 24.916 82.9325 22.2231 86.0729 21.2939C86.7295 22.9663 87.19 24.9173 87.2353 27.1297C84.8557 27.9289 82.3459 27.391 80.5241 25.8705ZM88.2196 26.7124C88.1322 24.5867 87.6978 22.7017 87.0785 21.0686C88.4679 20.852 90.0761 20.9966 91.8999 21.7265C91.5122 23.9002 90.1208 25.7272 88.2196 26.7124ZM92.0047 20.6927C89.996 19.9388 88.2256 19.8448 86.6935 20.1368C86.4566 19.6035 86.2077 19.0909 85.9441 18.619C88.295 17.6812 89.6844 16.538 90.3063 15.9328C91.4041 17.2019 92.0561 18.845 92.0047 20.6927ZM89.5956 15.2209C89.0298 15.7588 87.6971 16.8453 85.4182 17.7338C84.3011 15.9688 83.1066 14.7236 82.3499 14.0264C84.7709 13.0306 87.563 13.4558 89.5956 15.2209ZM81.393 14.515C81.9642 15.0169 83.2181 16.2221 84.4279 18.0858C82.7663 18.6204 80.6829 19.013 78.1491 19.0683C78.5522 17.1393 79.756 15.5049 81.393 14.515ZM78.0223 20.0721C80.8584 20.0261 83.154 19.5789 84.9685 18.9736C85.2194 19.4129 85.4576 19.8915 85.6865 20.3887C82.5267 21.3939 80.5521 23.9888 79.7961 25.1606C78.5762 23.8009 77.9036 22.0265 78.0223 20.0721Z" fill="#211105"/>
<circle cx="150" cy="20.5" r="20" fill="#DFDFDF"/>
<path d="M157.769 15.9206C157.22 16.1615 156.635 16.3212 156.025 16.3988C156.652 16.024 157.131 15.4351 157.357 14.7252C156.771 15.0742 156.125 15.3206 155.437 15.4582C154.881 14.8665 154.089 14.5 153.225 14.5C151.549 14.5 150.199 15.8606 150.199 17.5286C150.199 17.7686 150.219 17.9994 150.269 18.2191C147.752 18.0963 145.525 16.8898 144.028 15.052C143.767 15.5052 143.614 16.024 143.614 16.5825C143.614 17.6311 144.154 18.5606 144.959 19.0988C144.472 19.0895 143.995 18.9483 143.591 18.7258C143.591 18.7351 143.591 18.7471 143.591 18.7591C143.591 20.2305 144.64 21.4526 146.017 21.7342C145.77 21.8015 145.502 21.8338 145.223 21.8338C145.029 21.8338 144.833 21.8228 144.65 21.7822C145.042 22.9812 146.155 23.8628 147.479 23.8914C146.449 24.6972 145.141 25.1828 143.725 25.1828C143.476 25.1828 143.238 25.1717 143 25.1412C144.341 26.0062 145.931 26.5 147.645 26.5C153.217 26.5 156.263 21.8846 156.263 17.884C156.263 17.7502 156.258 17.6209 156.252 17.4926C156.853 17.0662 157.358 16.5335 157.769 15.9206Z" fill="#211105"/>
</svg>
